<svg version="1.0" xmlns="http://www.w3.org/2000/svg" preserveAspectRatio="xMidYMid meet" viewBox="162.38 154.88 428.62 442.33">

<g transform="translate(0.000000,752.000000) scale(0.100000,-0.100000)" fill="#000000" stroke="none">
<path d="M2498 5764 l-277 -205 -295 -403 c-163 -222 -298 -411 -302 -420 -5 -12 107 -346 122 -365 2 -2 60 114 130 258 70 144 128 260 130 259 1 -2 -40 -145 -92 -318 -52 -173 -133 -451 -180 -617 l-86 -301 70 -128 71 -128 64 134 c35 74 76 163 92 198 15 34 30 61 32 59 2 -2 -23 -125 -56 -273 -53 -241 -66 -285 -126 -427 -37 -88 -65 -161 -63 -163 21 -20 473 -373 475 -370 2 2 57 117 123 257 66 140 120 251 120 248 0 -3 -36 -141 -79 -307 l-79 -300 125 -319 126 -319 609 -133 609 -133 607 132 c334 73 608 133 608 134 1 0 58 144 127 320 l125 318 -74 291 c-41 159 -73 292 -71 294 2 2 55 -106 117 -239 63 -134 115 -245 116 -247 5 -6 474 370 474 380 0 6 -29 81 -65 168 -58 141 -73 190 -125 427 -32 148 -58 269 -57 270 1 1 43 -85 92 -192 50 -106 95 -194 100 -194 13 -1 138 219 137 241 -1 27 -137 511 -243 867 -54 183 -99 336 -98 340 0 4 57 -105 126 -243 113 -224 127 -247 135 -225 48 126 118 325 118 334 -1 6 -139 197 -308 425 l-307 415 -175 129 c-96 71 -221 163 -277 204 l-103 74 -489 -231 -490 -232 -488 231 c-269 127 -490 231 -493 231 -3 -1 -130 -93 -282 -206z m383 -585 c140 -55 395 -154 567 -220 l313 -119 327 124 c180 69 432 168 561 221 129 52 238 95 244 95 10 0 277 -188 277 -195 0 -2 -63 35 -141 82 l-141 86 -191 -98 c-106 -54 -195 -101 -199 -104 -4 -3 118 -70 271 -149 l279 -142 30 -113 c17 -61 41 -148 53 -192 l21 -81 -97 -459 -97 -459 -195 -275 c-107 -151 -197 -281 -200 -288 -3 -7 12 -39 32 -73 34 -56 36 -62 23 -88 -11 -21 -323 -424 -369 -476 -4 -5 -22 2 -39 14 -17 12 -32 21 -34 19 -2 -2 -38 -70 -80 -151 l-77 -148 -254 0 -254 0 -77 148 c-42 81 -78 149 -80 151 -2 2 -15 -6 -30 -18 -15 -11 -30 -21 -34 -21 -14 0 -376 464 -383 489 -4 18 4 41 29 84 19 33 33 65 31 71 -3 6 -92 135 -200 286 l-195 275 -102 460 -102 459 21 81 c12 44 36 131 53 193 l31 113 281 141 281 141 -213 104 -213 104 -107 -67 c-152 -96 -158 -99 -152 -91 13 15 256 186 266 186 6 1 125 -44 265 -100z"/>
<path d="M2825 4852 l-289 -147 -44 -167 -44 -168 97 -442 97 -443 174 -245 c95 -135 179 -254 187 -264 14 -19 16 -17 47 37 18 32 34 56 36 54 3 -2 -21 -74 -51 -160 l-56 -156 156 -198 c86 -109 160 -199 165 -201 5 -2 103 63 219 144 l211 148 0 147 0 148 -259 183 -260 183 275 3 c151 1 398 1 549 0 l276 -3 -255 -180 -256 -180 0 -150 0 -151 211 -148 c116 -81 214 -146 218 -144 5 2 79 92 165 201 l157 198 -60 167 c-33 91 -59 167 -58 169 2 1 20 -27 41 -63 21 -37 41 -62 46 -58 4 5 89 124 187 264 l180 255 97 442 97 443 -36 137 c-20 76 -41 153 -46 171 -10 31 -29 42 -300 178 l-290 145 -314 -121 c-173 -66 -321 -120 -329 -120 -8 0 -151 52 -318 116 -166 64 -310 118 -318 120 -8 2 -145 -63 -305 -144z m186 -480 c135 -27 251 -52 258 -56 24 -15 149 -213 165 -264 17 -49 17 -67 6 -208 -7 -85 -14 -153 -15 -152 -2 2 -8 68 -14 147 -11 138 -13 146 -46 200 l-35 56 -89 -9 c-92 -10 -162 0 -296 40 -49 15 -51 16 -135 150 -101 161 -100 158 -69 151 13 -3 135 -27 270 -55z m1777 26 c-13 -18 -55 -82 -93 -143 -38 -60 -72 -112 -76 -115 -4 -3 -59 -18 -123 -34 -109 -27 -123 -29 -208 -20 l-91 9 -38 -57 c-37 -57 -37 -59 -44 -193 -4 -74 -11 -133 -15 -130 -3 2 -12 68 -19 147 -12 137 -12 145 8 196 12 29 52 99 90 155 l69 103 248 48 c137 27 258 52 269 57 42 16 48 10 23 -23z"/>
<path d="M2885 4293 c63 -97 53 -89 160 -117 98 -26 152 -30 208 -17 l27 6 -26 40 c-15 22 -28 41 -28 42 -1 1 -71 15 -156 32 -85 17 -166 34 -179 37 l-24 5 18 -28z"/>
<path d="M4455 4284 c-88 -18 -161 -33 -161 -34 -1 0 -13 -18 -28 -40 l-26 -40 22 -4 c76 -15 108 -14 205 11 l104 26 35 51 c19 28 34 54 34 58 0 11 -5 10 -185 -28z"/>
<path d="M3450 3236 c0 -8 299 -216 310 -216 7 0 82 50 167 110 l155 110 -316 0 c-174 0 -316 -2 -316 -4z"/>
<path d="M3588 2454 c-93 -63 -168 -119 -168 -122 0 -4 30 -65 66 -135 l65 -127 215 0 214 0 62 123 c35 67 64 127 66 133 3 12 -309 233 -338 240 -8 3 -90 -48 -182 -112z"/>
</g>
</svg>